<svg xmlns="http://www.w3.org/2000/svg" xmlns:xlink="http://www.w3.org/1999/xlink" width="400" height="400" viewBox="0 0 400 400" fill="none"><rect x="0" y="0" width="0" height="0" fill="rgba(49, 53, 65, 1)" /><defs><rect id="path_0" x="0" y="0" width="400" height="400" /><linearGradient id="linear_0" x1="200.85863804663742%" y1="172.08041085685352%" x2="300.8575749804065%" y2="172.08041085685352%" gradientUnits="objectBoundingBox"><stop offset="0" stop-color="#FF7200" stop-opacity="1" /><stop offset="0.31" stop-color="#FC7E00" stop-opacity="1" /><stop offset="0.87" stop-color="#F69D00" stop-opacity="1" /><stop offset="1" stop-color="#F4A500" stop-opacity="1" /></linearGradient><linearGradient id="linear_1" x1="200.85863804663742%" y1="172.08339822152203%" x2="300.8575749804065%" y2="172.08339822152203%" gradientUnits="objectBoundingBox"><stop offset="0" stop-color="#FF7200" stop-opacity="1" /><stop offset="0.31" stop-color="#FC7E00" stop-opacity="1" /><stop offset="0.87" stop-color="#F69D00" stop-opacity="1" /><stop offset="1" stop-color="#F4A500" stop-opacity="1" /></linearGradient><linearGradient id="linear_2" x1="-0.010575296108281413%" y1="49.99999999999997%" x2="100.00000000000007%" y2="49.99999999999997%" gradientUnits="objectBoundingBox"><stop offset="0" stop-color="#FF7200" stop-opacity="1" /><stop offset="0.31" stop-color="#FC7E00" stop-opacity="1" /><stop offset="0.87" stop-color="#F69D00" stop-opacity="1" /><stop offset="1" stop-color="#F4A500" stop-opacity="1" /></linearGradient></defs><g opacity="1" transform="translate(0 0)  rotate(0 200 200)"><mask id="bg-mask" fill="white"><use xlink:href="#path_0"></use></mask><g mask="url(#bg-mask)" ><path id="路径 3" fill-rule="evenodd" style="fill:#FF7200" transform="translate(37 20)  rotate(0 163 119)" opacity="1" d="M212.84 32.78L212.94 32.65C214.12 30.71 215.26 28.73 216.3 26.77C218.53 23.39 221.09 20.25 223.95 17.39C228.23 13.13 233.13 9.54 238.47 6.72C246.02 2.76 254.34 0.47 262.85 0L269.58 0C289.55 1.1 307.64 12.11 317.77 29.32C327.9 46.53 328.73 67.66 319.97 85.61L320.02 85.56C318.64 88.08 317.23 90.6 315.73 93C310.34 101.93 304.51 110.59 298.24 118.92C242 193.98 153.56 238.12 59.66 238C27.3 238.01 0.83 212.27 0 179.98L0 177.14C0.76 144.85 27.18 119.06 59.54 119.03L61.8 119.03C123.69 118.24 180.79 85.64 212.84 32.78Z" /><path id="路径 2" fill-rule="evenodd" fill="url(#linear_0)" transform="translate(37 197)  rotate(0 61.5 91.5)" opacity="1" d="M0,0L0,122.96C0.65,150.6 19.68,174.41 46.5,181.14C73.33,187.88 101.36,175.89 115,151.84C128.64,127.79 124.54,97.59 104.98,78.04L105,78.04C93.84,66.86 78.79,60.41 62.99,60.05L60.05,60.05C60.52,60.05 60.97,60.05 61.44,60.05C28.04,60.04 0.76,33.38 0,0Z " /><path id="路径 1" fill-rule="evenodd" fill="url(#linear_1)" transform="translate(37 20)  rotate(0 61.5 91.5)" opacity="1" d="M62.99,122.95C78.79,122.59 93.84,116.14 105,104.96L104.98,104.96C124.54,85.41 128.64,55.21 115,31.16C101.36,7.11 73.33,-4.88 46.5,1.86C19.68,8.59 0.65,32.4 0,60.04L0,183C0.76,149.62 28.04,122.96 61.44,122.95C60.97,122.95 60.52,122.95 60.05,122.95L62.99,122.95Z " /><path id="路径 4" fill-rule="evenodd" fill="url(#linear_2)" transform="translate(200 221)  rotate(0 79.5 79.5)" opacity="1" d="M79.5,0C35.59,0 0,35.59 0,79.5C0,123.41 35.59,159 79.5,159C123.41,159 159,123.41 159,79.5C159,35.59 123.41,0 79.5,0Z " /></g></g></svg>